<mxfile host="65bd71144e">
    <diagram id="97gA0pF0Zc46DC7x7eBv" name="Page-1">
        <mxGraphModel dx="1436" dy="687" grid="1" gridSize="10" guides="1" tooltips="1" connect="1" arrows="1" fold="1" page="1" pageScale="1" pageWidth="850" pageHeight="1100" math="0" shadow="0">
            <root>
                <mxCell id="0"/>
                <mxCell id="1" parent="0"/>
                <mxCell id="2" value="" style="whiteSpace=wrap;html=1;" vertex="1" parent="1">
                    <mxGeometry x="220" y="120" width="710" height="660" as="geometry"/>
                </mxCell>
                <mxCell id="8" value="" style="whiteSpace=wrap;html=1;dashed=1;" vertex="1" parent="1">
                    <mxGeometry x="240" y="360" width="310" height="290" as="geometry"/>
                </mxCell>
                <mxCell id="3" value="" style="whiteSpace=wrap;html=1;" vertex="1" parent="1">
                    <mxGeometry x="330" y="160" width="120" height="60" as="geometry"/>
                </mxCell>
                <mxCell id="4" value="" style="whiteSpace=wrap;html=1;" vertex="1" parent="1">
                    <mxGeometry x="250" y="250" width="280" height="40" as="geometry"/>
                </mxCell>
                <mxCell id="6" value="" style="whiteSpace=wrap;html=1;" vertex="1" parent="1">
                    <mxGeometry x="330" y="375" width="120" height="60" as="geometry"/>
                </mxCell>
                <mxCell id="7" value="" style="whiteSpace=wrap;html=1;" vertex="1" parent="1">
                    <mxGeometry x="250" y="475" width="90" height="40" as="geometry"/>
                </mxCell>
                <mxCell id="9" value="" style="whiteSpace=wrap;html=1;" vertex="1" parent="1">
                    <mxGeometry x="250" y="525" width="90" height="40" as="geometry"/>
                </mxCell>
                <mxCell id="10" value="" style="whiteSpace=wrap;html=1;" vertex="1" parent="1">
                    <mxGeometry x="350" y="525" width="90" height="40" as="geometry"/>
                </mxCell>
                <mxCell id="11" value="" style="whiteSpace=wrap;html=1;" vertex="1" parent="1">
                    <mxGeometry x="350" y="475" width="90" height="40" as="geometry"/>
                </mxCell>
                <mxCell id="12" value="" style="whiteSpace=wrap;html=1;" vertex="1" parent="1">
                    <mxGeometry x="450" y="475" width="90" height="40" as="geometry"/>
                </mxCell>
                <mxCell id="13" value="" style="whiteSpace=wrap;html=1;" vertex="1" parent="1">
                    <mxGeometry x="450" y="525" width="90" height="40" as="geometry"/>
                </mxCell>
            </root>
        </mxGraphModel>
    </diagram>
</mxfile>